# xmcd
#
# Track frame offsets:
#	150
#	20635
#	33537
#	51384
#	66699
#	83436
#	97101
#	112098
#	129506
#	143197
#	161683
#	177007
#	192037
#	208753
#	228619
#	247184
#
# Disc length: 3526 seconds
#
# Revision: 3
# Processed by: cddbd v1.5.2PL0 Copyright (c) Steve Scherf et al.
# Submitted via: EasyCDDAExtractor 15.3.0.1
#
DISCID=f00dc410
DTITLE=Rocio Durcal - Su Historia Y Exitos Musicales Vol. 2 - CD 2
DYEAR=2004
DGENRE=Latin
TTITLE0=Costumbres
TTITLE1=El Canalla
TTITLE2=Tu Si Que Sabes Amar
TTITLE3=Diferentes
TTITLE4=Bailemos Otra Vez
TTITLE5=De Serenata
TTITLE6=Te Dedico Esta Cancion
TTITLE7=Limosna De Amor
TTITLE8=Estas Tan Dentro De Mi
TTITLE9=La Guirnalda
TTITLE10=Hazlo Por Mi Corazon
TTITLE11=La Diferencia
TTITLE12=Amor Disculpame
TTITLE13=Siempre
TTITLE14=Amandote
TTITLE15=Quedate Conmigo Esta Noche
EXTD=YEAR: 2004
EXTT0=
EXTT1=
EXTT2=
EXTT3=
EXTT4=
EXTT5=
EXTT6=
EXTT7=
EXTT8=
EXTT9=
EXTT10=
EXTT11=
EXTT12=
EXTT13=
EXTT14=
EXTT15=
PLAYORDER=
